<svg xmlns="http://www.w3.org/2000/svg" width="640" height="640" viewBox="0 0 640 640" fill="none">
  <defs>
    <radialGradient id="bg" cx="0" cy="0" r="1" gradientUnits="userSpaceOnUse" gradientTransform="translate(320 320) rotate(90) scale(300)">
      <stop offset="0" stop-color="#FFC37B" stop-opacity="0.22"/>
      <stop offset="0.45" stop-color="#FF9A5C" stop-opacity="0.1"/>
      <stop offset="1" stop-color="#FF9A5C" stop-opacity="0"/>
    </radialGradient>
  </defs>

  <rect width="640" height="640" fill="url(#bg)"/>

  <g opacity="0.22" stroke="#FFC37B" stroke-width="1.2">
    <path d="M92 92H150" />
    <path d="M92 92V150" />
    <path d="M548 92H490" />
    <path d="M548 92V150" />
    <path d="M92 548H150" />
    <path d="M92 548V490" />
    <path d="M548 548H490" />
    <path d="M548 548V490" />
  </g>

  <g opacity="0.2">
    <circle cx="320" cy="320" r="210" stroke="#FFC37B" stroke-width="1.5"/>
    <circle cx="320" cy="320" r="170" stroke="#FFC37B" stroke-width="1" stroke-dasharray="6 10"/>
    <circle cx="320" cy="320" r="118" stroke="#FFC37B" stroke-width="1"/>
  </g>

  <g fill="#FFC37B" opacity="0.85">
    <circle cx="320" cy="208" r="52"/>
    <circle cx="432" cy="320" r="52"/>
    <circle cx="320" cy="432" r="52"/>
    <circle cx="208" cy="320" r="52"/>
    <circle cx="320" cy="320" r="30"/>
  </g>

  <g opacity="0.22" stroke="#FFC37B" stroke-width="10" stroke-linecap="round">
    <path d="M320 118V154"/>
    <path d="M320 486V522"/>
    <path d="M118 320H154"/>
    <path d="M486 320H522"/>
  </g>

  <g opacity="0.28" fill="#FFE1B9">
    <path d="M320 228l18 46h48l-39 28 15 47-42-29-42 29 15-47-39-28h48l18-46z"/>
  </g>

  <g opacity="0.18" fill="#FFC37B" font-family="monospace" font-size="18" letter-spacing="5">
    <text x="165" y="584">KLEE DOSSIER // FAVONIUS</text>
  </g>
</svg>
