<?xml version="1.0" encoding="UTF-8"?>
<!DOCTYPE svg PUBLIC "-//W3C//DTD SVG 1.1//EN" "http://www.w3.org/Graphics/SVG/1.1/DTD/svg11.dtd">
<svg xmlns="http://www.w3.org/2000/svg" version="1.1" width="90px" height="90px" style="shape-rendering:geometricPrecision; text-rendering:geometricPrecision; image-rendering:optimizeQuality; fill-rule:evenodd; clip-rule:evenodd" xmlns:xlink="http://www.w3.org/1999/xlink">
<g><path style="opacity:0.99" fill="#df8067" d="M 48.5,12.5 C 45.1667,12.5 41.8333,12.5 38.5,12.5C 41.783,8.69518 45.1163,8.69518 48.5,12.5 Z"/></g>
<g><path style="opacity:1" fill="#d05b3d" d="M 38.5,12.5 C 41.8333,12.5 45.1667,12.5 48.5,12.5C 49.5,12.8333 50.1667,13.5 50.5,14.5C 51.8249,20.5762 51.4915,26.5762 49.5,32.5C 47.7742,34.9422 46.2742,37.6089 45,40.5C 44.3292,41.2524 43.4959,41.5858 42.5,41.5C 36.0748,38.4528 29.7414,35.1195 23.5,31.5C 21.4041,29.646 20.0707,27.3127 19.5,24.5C 19.6682,22.8295 20.3349,21.4961 21.5,20.5C 23.3407,19.5977 24.674,18.2644 25.5,16.5C 25.8333,16.5 26.1667,16.5 26.5,16.5C 29.2186,17.913 32.2186,18.5797 35.5,18.5C 35.615,16.0532 36.615,14.0532 38.5,12.5 Z"/></g>
<g><path style="opacity:0.388" fill="#f3b0a0" d="M 38.5,12.5 C 36.615,14.0532 35.615,16.0532 35.5,18.5C 32.2186,18.5797 29.2186,17.913 26.5,16.5C 29.2469,16.8134 31.9135,16.48 34.5,15.5C 35.2826,13.7118 36.6159,12.7118 38.5,12.5 Z"/></g>
<g><path style="opacity:0.624" fill="#f2a996" d="M 25.5,16.5 C 24.674,18.2644 23.3407,19.5977 21.5,20.5C 21.5,20.1667 21.5,19.8333 21.5,19.5C 22.4363,18.0256 23.7697,17.0256 25.5,16.5 Z"/></g>
<g><path style="opacity:0.42" fill="#e8bfb4" d="M 50.5,14.5 C 51.2216,14.9175 51.7216,15.5842 52,16.5C 52.4986,20.1516 52.6653,23.8183 52.5,27.5C 51.1667,28.1667 51.1667,28.8333 52.5,29.5C 52.0679,30.7095 51.4013,31.7095 50.5,32.5C 50.1667,32.5 49.8333,32.5 49.5,32.5C 51.4915,26.5762 51.8249,20.5762 50.5,14.5 Z"/></g>
<g><path style="opacity:1" fill="#d05c3e" d="M 71.5,23.5 C 71.2852,25.1788 71.9519,26.1788 73.5,26.5C 73.5,27.1667 73.5,27.8333 73.5,28.5C 72.6204,30.1368 71.9537,31.9701 71.5,34C 71.5699,34.7648 71.9033,35.2648 72.5,35.5C 74.1436,37.4807 75.8103,39.4807 77.5,41.5C 77.5,44.1667 77.5,46.8333 77.5,49.5C 77.573,51.0269 76.9063,52.0269 75.5,52.5C 71.5,52.5 67.5,52.5 63.5,52.5C 63.1667,52.5 62.8333,52.5 62.5,52.5C 62.6309,51.6236 62.2975,50.9569 61.5,50.5C 56.1491,48.3113 51.4824,45.1446 47.5,41C 48.2524,40.3292 48.5858,39.4959 48.5,38.5C 48.5,38.1667 48.5,37.8333 48.5,37.5C 48.5,37.1667 48.5,36.8333 48.5,36.5C 49.1667,36.5 49.5,36.1667 49.5,35.5C 49.5,35.1667 49.5,34.8333 49.5,34.5C 50.3382,34.1583 50.6716,33.4916 50.5,32.5C 51.4013,31.7095 52.0679,30.7095 52.5,29.5C 54.934,26.5624 57.6007,23.7291 60.5,21C 64.6555,19.9464 68.3221,20.7798 71.5,23.5 Z"/></g>
<g><path style="opacity:0.192" fill="#f4b5a4" d="M 71.5,23.5 C 68.3221,20.7798 64.6555,19.9464 60.5,21C 57.6007,23.7291 54.934,26.5624 52.5,29.5C 52.5,28.8333 52.5,28.1667 52.5,27.5C 54.6281,24.8697 56.9614,22.3697 59.5,20C 64.7377,17.4729 68.7377,18.6396 71.5,23.5 Z"/></g>
<g><path style="opacity:0.071" fill="#e3afa4" d="M 71.5,23.5 C 72.9063,23.9731 73.573,24.9731 73.5,26.5C 71.9519,26.1788 71.2852,25.1788 71.5,23.5 Z"/></g>
<g><path style="opacity:0.169" fill="#f5cac0" d="M 21.5,19.5 C 21.5,19.8333 21.5,20.1667 21.5,20.5C 20.3349,21.4961 19.6682,22.8295 19.5,24.5C 20.0707,27.3127 21.4041,29.646 23.5,31.5C 23.5,31.8333 23.5,32.1667 23.5,32.5C 18.8003,29.6613 17.467,25.6613 19.5,20.5C 19.9569,19.7025 20.6236,19.3691 21.5,19.5 Z"/></g>
<g><path style="opacity:0.208" fill="#eacdc8" d="M 73.5,28.5 C 73.552,30.9029 73.2186,33.2362 72.5,35.5C 71.9033,35.2648 71.5699,34.7648 71.5,34C 71.9537,31.9701 72.6204,30.1368 73.5,28.5 Z"/></g>
<g><path style="opacity:0.235" fill="#e49f8d" d="M 23.5,31.5 C 29.7414,35.1195 36.0748,38.4528 42.5,41.5C 42.1667,41.5 41.8333,41.5 41.5,41.5C 40.8333,41.5 40.5,41.8333 40.5,42.5C 40.5,42.8333 40.5,43.1667 40.5,43.5C 36.0892,41.9615 32.0892,39.9615 28.5,37.5C 28.9382,37.5654 29.2716,37.3988 29.5,37C 27.2528,35.7225 25.2528,34.2225 23.5,32.5C 23.5,32.1667 23.5,31.8333 23.5,31.5 Z"/></g>
<g><path style="opacity:0.42" fill="#e69078" d="M 27.5,37.5 C 23.7492,37.6833 19.7492,37.6833 15.5,37.5C 15.5,37.1667 15.5,36.8333 15.5,36.5C 19.7,35.1508 23.7,35.4841 27.5,37.5 Z"/></g>
<g><path style="opacity:0.047" fill="#e7ac9d" d="M 72.5,35.5 C 76.2322,36.9773 78.5655,39.644 79.5,43.5C 78.8333,42.8333 78.1667,42.1667 77.5,41.5C 75.8103,39.4807 74.1436,37.4807 72.5,35.5 Z"/></g>
<g><path style="opacity:0.267" fill="#f7bfae" d="M 15.5,36.5 C 15.5,36.8333 15.5,37.1667 15.5,37.5C 13.6666,39.1117 11.9999,40.7784 10.5,42.5C 10.7717,39.2678 12.4384,37.2678 15.5,36.5 Z"/></g>
<g><path style="opacity:1" fill="#d05b3d" d="M 15.5,37.5 C 19.7492,37.6833 23.7492,37.6833 27.5,37.5C 27.8333,37.5 28.1667,37.5 28.5,37.5C 32.0892,39.9615 36.0892,41.9615 40.5,43.5C 41.5983,44.6009 41.765,45.9343 41,47.5C 38.6667,53.5 36.3333,59.5 34,65.5C 32.2228,67.7899 30.0562,69.4566 27.5,70.5C 25.8008,70.6602 24.1341,70.4935 22.5,70C 21.2949,68.6244 19.9616,67.4577 18.5,66.5C 17.2362,63.0073 17.2362,59.5073 18.5,56C 18.3158,54.6244 17.6491,53.7911 16.5,53.5C 15.5,51.8333 14.1667,50.5 12.5,49.5C 12.7709,47.6203 12.1042,46.287 10.5,45.5C 10.5,44.5 10.5,43.5 10.5,42.5C 11.9999,40.7784 13.6666,39.1117 15.5,37.5 Z"/></g>
<g><path style="opacity:0.055" fill="#eab4a5" d="M 49.5,32.5 C 49.5,33.1667 49.5,33.8333 49.5,34.5C 49.5,34.8333 49.5,35.1667 49.5,35.5C 48.8333,35.5 48.5,35.8333 48.5,36.5C 48.5,36.8333 48.5,37.1667 48.5,37.5C 47.1667,37.8333 47.1667,38.1667 48.5,38.5C 48.5858,39.4959 48.2524,40.3292 47.5,41C 51.4824,45.1446 56.1491,48.3113 61.5,50.5C 62.2975,50.9569 62.6309,51.6236 62.5,52.5C 62.5,53.1667 62.8333,53.5 63.5,53.5C 65.5002,55.671 67.3335,58.0043 69,60.5C 69.9274,63.8632 69.4274,66.8632 67.5,69.5C 68.8904,66.0697 68.7237,62.7363 67,59.5C 64.6166,56.7272 61.7833,54.5605 58.5,53C 57.7476,52.3292 57.4142,51.4959 57.5,50.5C 57.1667,49.1667 56.8333,49.1667 56.5,50.5C 53.7845,48.5326 50.7845,47.0326 47.5,46C 46.7476,45.3292 46.4142,44.4959 46.5,43.5C 46.8333,43.5 47.1667,43.5 47.5,43.5C 47.2172,42.7109 46.7172,42.0442 46,41.5C 44.9887,42.3366 43.8221,42.67 42.5,42.5C 42.1307,44.9935 42.7973,45.6602 44.5,44.5C 42.4363,50.5669 40.4363,56.7335 38.5,63C 38.1639,64.0299 37.4972,64.5299 36.5,64.5C 34.5178,67.4415 31.5178,70.1082 27.5,72.5C 27.5,71.8333 27.5,71.1667 27.5,70.5C 30.0562,69.4566 32.2228,67.7899 34,65.5C 36.3333,59.5 38.6667,53.5 41,47.5C 41.765,45.9343 41.5983,44.6009 40.5,43.5C 40.5,43.1667 40.5,42.8333 40.5,42.5C 41.1667,42.5 41.5,42.1667 41.5,41.5C 41.8333,41.5 42.1667,41.5 42.5,41.5C 43.4959,41.5858 44.3292,41.2524 45,40.5C 46.2742,37.6089 47.7742,34.9422 49.5,32.5 Z M 47.5,43.5 C 47.1667,43.5 46.8333,43.5 46.5,43.5C 45.5084,43.3284 44.8417,43.6618 44.5,44.5C 42.7973,45.6602 42.1307,44.9935 42.5,42.5C 43.8221,42.67 44.9887,42.3366 46,41.5C 46.7172,42.0442 47.2172,42.7109 47.5,43.5 Z"/></g>
<g><path style="opacity:0.671" fill="#d78b73" d="M 77.5,41.5 C 78.1667,42.1667 78.8333,42.8333 79.5,43.5C 79.5,45.5 79.5,47.5 79.5,49.5C 78.8333,49.5 78.1667,49.5 77.5,49.5C 77.5,46.8333 77.5,44.1667 77.5,41.5 Z"/></g>
<g><path style="opacity:1" fill="#d05c3e" d="M 46.5,43.5 C 46.4142,44.4959 46.7476,45.3292 47.5,46C 50.7845,47.0326 53.7845,48.5326 56.5,50.5C 56.8333,50.5 57.1667,50.5 57.5,50.5C 57.4142,51.4959 57.7476,52.3292 58.5,53C 61.7833,54.5605 64.6166,56.7272 67,59.5C 68.7237,62.7363 68.8904,66.0697 67.5,69.5C 65.2752,70.9241 62.7752,71.5908 60,71.5C 54.9398,68.8978 51.7732,70.2311 50.5,75.5C 50.5,76.1667 50.1667,76.5 49.5,76.5C 40.5371,79.2049 36.2038,75.8716 36.5,66.5C 36.5,65.8333 36.5,65.1667 36.5,64.5C 37.4972,64.5299 38.1639,64.0299 38.5,63C 40.4363,56.7335 42.4363,50.5669 44.5,44.5C 44.8417,43.6618 45.5084,43.3284 46.5,43.5 Z"/></g>
<g><path style="opacity:0.306" fill="#f6c8ba" d="M 10.5,45.5 C 12.1042,46.287 12.7709,47.6203 12.5,49.5C 10.8235,48.8166 10.1568,47.4832 10.5,45.5 Z"/></g>
<g><path style="opacity:0.012" fill="#f1cbbc" d="M 12.5,49.5 C 14.1667,50.5 15.5,51.8333 16.5,53.5C 14.1667,53.1667 12.8333,51.8333 12.5,49.5 Z"/></g>
<g><path style="opacity:0.939" fill="#d8826b" d="M 63.5,53.5 C 63.5,53.1667 63.5,52.8333 63.5,52.5C 67.5,52.5 71.5,52.5 75.5,52.5C 74.8333,53.1667 74.1667,53.8333 73.5,54.5C 72.9032,55.1386 72.0698,55.472 71,55.5C 68.4564,54.9288 65.9564,54.2621 63.5,53.5 Z"/></g>
<g><path style="opacity:0.086" fill="#e8cdc6" d="M 77.5,49.5 C 78.1667,49.5 78.8333,49.5 79.5,49.5C 78.7571,52.5696 76.7571,54.2363 73.5,54.5C 74.1667,53.8333 74.8333,53.1667 75.5,52.5C 76.9063,52.0269 77.573,51.0269 77.5,49.5 Z"/></g>
<g><path style="opacity:0.196" fill="#f2c0b2" d="M 16.5,53.5 C 17.6491,53.7911 18.3158,54.6244 18.5,56C 17.2362,59.5073 17.2362,63.0073 18.5,66.5C 17.8826,66.3893 17.3826,66.056 17,65.5C 16.7594,61.3607 16.5927,57.3607 16.5,53.5 Z"/></g>
<g><path style="opacity:0.157" fill="#df9f8c" d="M 18.5,66.5 C 19.9616,67.4577 21.2949,68.6244 22.5,70C 24.1341,70.4935 25.8008,70.6602 27.5,70.5C 27.5,71.1667 27.5,71.8333 27.5,72.5C 22.8479,72.831 19.8479,70.831 18.5,66.5 Z"/></g>
<g><path style="opacity:0.447" fill="#dfaa9d" d="M 67.5,69.5 C 63.6417,73.8348 59.1417,74.5015 54,71.5C 53.34,73.3237 52.1733,74.657 50.5,75.5C 51.7732,70.2311 54.9398,68.8978 60,71.5C 62.7752,71.5908 65.2752,70.9241 67.5,69.5 Z"/></g>
<g><path style="opacity:0.047" fill="#de9f8f" d="M 36.5,66.5 C 36.2038,75.8716 40.5371,79.2049 49.5,76.5C 45.1771,81.7549 41.0104,81.4216 37,75.5C 36.502,72.5184 36.3354,69.5184 36.5,66.5 Z"/></g>
</svg>
